<?xml version="1.0" encoding="UTF-8"?>
<svg width="124px" height="77px" viewBox="0 0 124 77" version="1.1" xmlns="http://www.w3.org/2000/svg" xmlns:xlink="http://www.w3.org/1999/xlink">
    <!-- Generator: Sketch 46 (44423) - http://www.bohemiancoding.com/sketch -->
    <title>Logo</title>
    <desc>Created with Sketch.</desc>
    <defs>
        <linearGradient x1="98.5493322%" y1="100%" x2="10.5114352%" y2="10.4796571%" id="linearGradient-1">
            <stop stop-color="#4A8ADC" offset="0%"></stop>
            <stop stop-color="#15CABB" offset="100%"></stop>
        </linearGradient>
    </defs>
    <g id="Page-1" stroke="none" stroke-width="1" fill="none" fill-rule="evenodd">
        <g id="Logo">
            <path d="M116.343406,58.1982847 C121.140016,52.0824131 124,44.375199 124,36 L124,36 C124,16.117749 107.882251,-3.65231026e-15 88,0 L36,0 L36,0 C16.117749,3.65231026e-15 -2.4348735e-15,16.117749 0,36 L0,36 L0,36 C2.4348735e-15,55.882251 16.117749,72 36,72 L88,72 C93.6516899,72 98.999198,70.6976434 103.758785,68.3766694 C105.0371,72.2354306 115.210773,79.0239712 122.186523,76.2045898 C120.409386,71.946865 118.46168,65.9447633 116.343406,58.1982847 Z" id="Combined-Shape" fill="url(#linearGradient-1)"></path>
            <path d="M57.9059943,25.9014608 C59.9706946,23.8212483 61.7168411,22.1192563 61.7758325,22.1192563 C61.834824,22.1192563 63.5573739,23.7976096 65.5984776,25.8423639 C67.6395814,27.8871182 69.350333,29.5654714 69.3857279,29.5654714 C69.515509,29.5654714 76.9248335,22.1074369 76.9248335,21.989243 C76.9248335,21.9301461 75.2258801,20.1808765 73.1611798,18.1124834 L69.3857279,14.3302789 L65.5984776,18.1243028 C63.5219791,20.2045153 61.7876308,21.8946879 61.7640343,21.8710491 C61.7404377,21.8474104 60.0178877,20.1335989 57.9413892,18.0652058 L54.1777355,14.3066401 L50.3904853,18.1124834 C48.3021884,20.2045153 46.6150333,21.9774236 46.6386299,22.04834 C46.6740247,22.1428951 53.9771646,29.6009296 54.1187441,29.6718459 C54.1305423,29.6836653 55.8294957,27.9816733 57.9059943,25.9014608 Z" id="Path" fill="#FFFFFF"></path>
            <path d="M22.6077008,55.8474209 C24.2359018,55.0625243 25.0928497,53.4068833 24.7500705,51.7267142 C24.6276494,51.1380418 24.2236597,50.0710731 23.8931227,49.4456087 C23.4401645,48.6116561 23.1218696,45.9013104 23.281017,44.2456693 C23.3789539,43.1419086 23.7217331,41.5475875 23.8931227,41.3145714 C23.9543332,41.2532513 24.1379649,40.8485391 24.3093545,40.4192988 C25.5580499,37.3042407 28.9980835,34.4344629 32.4626014,33.6127743 L33.625602,33.3429661 L61.3539868,33.3429661 C90.7962672,33.3429661 89.6210244,33.3184381 91.432857,33.9071105 C92.4611945,34.2382387 94.2240587,35.2193594 95.0810066,35.9184078 C96.6357548,37.1816007 97.847724,38.7881857 98.6801876,40.689107 C99.4024723,42.344748 99.5861039,43.3013407 99.598346,45.423014 C99.598346,47.4956314 99.4391986,48.3050559 98.6557034,50.1446571 C98.178261,51.2852099 98.1415347,51.456906 98.1415347,52.4748187 C98.1415347,53.4682033 98.178261,53.6398994 98.4965559,54.2285718 C98.8760614,54.9030922 99.6595566,55.5776127 100.455294,55.9087409 C100.700136,56.019117 101.263273,56.092701 101.789684,56.092701 C102.524211,56.092701 102.80578,56.031381 103.295464,55.7738368 C104.446223,55.1606364 104.984876,54.461588 105.694918,52.6342508 C106.74774,49.936169 107.090519,47.8144956 106.98034,44.6503815 C106.894645,42.1730519 106.637561,40.738163 105.903034,38.7391297 C104.580886,35.1457753 102.365063,32.1288294 99.3902301,29.8599879 C98.2272295,28.9647153 97.6151238,28.596795 95.9134702,27.7628425 C94.2852692,26.965682 93.1100265,26.5854977 90.9554147,26.1439934 L89.572056,25.8619213 L61.4151973,25.8619213 L33.2583387,25.8619213 L31.87498,26.1439934 C29.8427893,26.5609697 28.6063359,26.941154 27.1862509,27.6156744 C23.9788174,29.1241474 21.5426371,31.1109167 19.4982043,33.8948465 C18.7391933,34.9250232 17.8455191,36.4825522 17.4537715,37.4636728 C17.2823819,37.8929131 17.0375397,38.4693215 16.9151186,38.7391297 C16.6580342,39.303274 16.2785287,40.774955 16.0336865,42.1117319 C15.7888442,43.5098288 15.8255705,47.6427995 16.1071391,49.0408964 C16.5723394,51.420114 17.5149821,53.9342356 18.273993,54.7927162 C18.812646,55.4059166 19.6206254,55.9210049 20.3061837,56.080437 C20.9305314,56.2398691 22.0078373,56.129493 22.6077008,55.8474209 Z" id="Path" fill="#FFFFFF" transform="translate(61.435426, 41.007888) scale(1, -1) translate(-61.435426, -41.007888) "></path>
        </g>
    </g>
</svg>